# xmcd
#
# Track frame offsets: 
#        150
#        20615
#        36836
#        51046
#        69951
#        78956
#        92230
#        107660
#        126273
#        144219
#        160113
#        180000
#        196815
#        212901
#        231466
#        242429
#        259302
#
# Disc length: 3633 seconds
#
# Revision: 3
# Processed by: cddbd v1.5.2PL0 Copyright (c) Steve Scherf et al.
# Submitted via: ExactAudioCopy v0.99pb5
#
DISCID=dd0e2f11
DTITLE=Various Artist - The Music Of Nashville Season 5 Volume 3
DYEAR=2017
DGENRE=Country
TTITLE0=Charles Esten - Good Rain Or Jesus
TTITLE1=Clare Bowen and Sam Palladio - As The Crow Flies
TTITLE2=Lennon and Maisy - Clockwork
TTITLE3=Hayden Pannettiere - On My Way (Choir Version)
TTITLE4=Rhiannon Giddens - Going Down The Road Feeling Bad (Electric V
TTITLE4=ersion)
TTITLE5=Jonathan Jackson - Rose And Thorn
TTITLE6=Chris Carmack - Stand Up
TTITLE7=Lennon and Maisy - Love Until It Hurts
TTITLE8=Charles Esten - Without You
TTITLE9=Hayden Panettiere - Water Rising
TTITLE10=Lennon Stella - Beautiful Dream (Ballad Version)
TTITLE11=Sam Palladio - In The End
TTITLE12=Clare Bowen and Chris Carmack - Little Darlin'
TTITLE13=Rhiannon Giddens - Count On Me
TTITLE14=Jonathan Jackson - No One Cares About Your Dreams
TTITLE15=Clare Bowen - Forever
TTITLE16=Charles Esten - Dreaming My Dreams With You
EXTD=
EXTT0=
EXTT1=
EXTT2=
EXTT3=
EXTT4=
EXTT5=
EXTT6=
EXTT7=
EXTT8=
EXTT9=
EXTT10=
EXTT11=
EXTT12=
EXTT13=
EXTT14=
EXTT15=
EXTT16=
PLAYORDER=
